# File created by Blade
# Date/Time:  Fri Jan 16 15:45:56 2015
#---------------------------------------------------------
:version 1.10
:name HOM
:units
  mass 1.0
  length 1.000000
  angle deg
:documentation
     Acclaim Skeleton File
:root
   axis xyz
   order TX TY TZ RX RY RZ
   position 0.000000 0.000000 0.000000
   orientation 0 0 0
:bonedata
   begin
      id 1
      name Spine_dum
      direction 0.000000 1.000000 0.000000
      length 7.170412
      axis 0.0 0.0 0.0 xyz
   end
   begin
      id 2
      name LeftUpLeg_dum
      direction 1.000000 0.000000 0.000000
      length 4.318350
      axis 0.0 0.0 0.0 xyz
   end
   begin
      id 3
      name RightUpLeg_dum
      direction -1.000000 0.000000 0.000000
      length 4.318350
      axis 0.0 0.0 0.0 xyz
   end
   begin
      id 4
      name Spine
      direction 0.000000 1.000000 0.000000
      length 0.000000
      axis 0.0 0.0 0.0 xyz
      dof rx ry rz
   end
   begin
      id 5
      name Spine_dum1
      direction 0.000000 1.000000 0.000000
      length 14.276153
      axis 0.0 0.0 0.0 xyz
   end
   begin
      id 6
      name Spine_dum2
      direction 0.000000 1.000000 0.000000
      length 10.718243
      axis 0.0 0.0 0.0 xyz
   end
   begin
      id 7
      name Spine_dum3
      direction 0.000000 1.000000 0.000000
      length 10.718243
      axis 0.0 0.0 0.0 xyz
   end
   begin
      id 8
      name Head
      direction 0.000000 1.000000 0.000000
      length 4.527550
      axis 0.0 0.0 0.0 xyz
      dof rx ry rz
   end
   begin
      id 9
      name LeftShoulder
      direction 1.000000 0.000000 0.000000
      length 7.058872
      axis 0.0 0.0 -90.0 xyz
      dof rx ry rz
   end
   begin
      id 10
      name LeftArm
      direction 1.000000 0.000000 0.000000
      length 10.955525
      axis 0.0 0.0 -90.0 xyz
      dof rx ry rz
   end
   begin
      id 11
      name LeftForeArm
      direction 1.000000 0.000000 0.000000
      length 8.193716
      axis 0.0 0.0 -90.0 xyz
      dof ry rz rx
   end
   begin
      id 12
      name LeftHand
      direction 0.000000 0.000000 0.000000
      length 0.000000
      axis 0.0 0.0 -90.0 xyz
      dof rx ry rz
   end
   begin
      id 13
      name LeftHand_dum1
      direction 0.000000 0.000000 0.000000
      length 0.000000
      axis 0.0 0.0 -90.0 xyz
   end
   begin
      id 14
      name LeftHand_dum2
      direction 1.000000 0.000000 0.000000
      length 3.937000
      axis 0.0 0.0 -90.0 xyz
   end
   begin
      id 15
      name LeftHandThumb1
      direction 0.000000 0.000000 1.000000
      length 3.937000
      axis 0.0 0.0 -90.0 xyz
      dof rx rz ry
   end
   begin
      id 16
      name RightShoulder
      direction -1.000000 0.000000 0.000000
      length 7.058872
      axis 0.0 0.0 90.0 xyz
      dof rx ry rz
   end
   begin
      id 17
      name RightArm
      direction -1.000000 0.000000 0.000000
      length 10.955525
      axis 0.0 0.0 90.0 xyz
      dof rx ry rz
   end
   begin
      id 18
      name RightForeArm
      direction -1.000000 0.000000 0.000000
      length 8.193716
      axis 0.0 0.0 90.0 xyz
      dof ry rz rx
   end
   begin
      id 19
      name RightHand
      direction 0.000000 0.000000 0.000000
      length 0.000000
      axis 0.0 0.0 90.0 xyz
      dof rx ry rz
   end
   begin
      id 20
      name RightHand_dum1
      direction 0.000000 0.000000 0.000000
      length 0.000000
      axis 0.0 0.0 90.0 xyz
   end
   begin
      id 21
      name RightHand_dum2
      direction -1.000000 0.000000 0.000000
      length 3.937000
      axis 0.0 0.0 90.0 xyz
   end
   begin
      id 22
      name RightHandThumb1
      direction 0.000000 0.000000 1.000000
      length 3.937000
      axis 0.0 0.0 90.0 xyz
      dof rx rz ry
   end
   begin
      id 23
      name LeftUpLeg
      direction 0.000000 -1.000000 0.000000
      length 17.323638
      axis 0.0 0.0 0.0 xyz
      dof rx ry rz
   end
   begin
      id 24
      name LeftLeg
      direction 0.000000 -1.000000 0.000000
      length 16.270368
      axis 0.0 0.0 0.0 xyz
      dof rx ry rz
   end
   begin
      id 25
      name LeftFoot
      direction 0.000000 -0.258819 0.965926
      length 4.922846
      axis 15.0 0.0 0.0 xyz
      dof rx ry rz
   end
   begin
      id 26
      name LeftToeBase
      direction 0.000000 0.000000 1.000000
      length 2.952750
      axis 0.0 0.0 0.0 xyz
      dof rx ry rz
   end
   begin
      id 27
      name RightUpLeg
      direction 0.000000 -1.000000 0.000000
      length 17.323638
      axis 0.0 0.0 0.0 xyz
      dof rx ry rz
   end
   begin
      id 28
      name RightLeg
      direction 0.000000 -1.000000 0.000000
      length 16.270368
      axis 0.0 0.0 0.0 xyz
      dof rx ry rz
   end
   begin
      id 29
      name RightFoot
      direction 0.000000 -0.258819 0.965926
      length 4.922846
      axis 15.0 0.0 0.0 xyz
      dof rx ry rz
   end
   begin
      id 30
      name RightToeBase
      direction 0.000000 0.000000 1.000000
      length 2.952750
      axis 0.0 0.0 0.0 xyz
      dof rx ry rz
   end
:hierarchy
   begin
      root Spine_dum LeftUpLeg_dum RightUpLeg_dum
      Spine_dum Spine
      LeftUpLeg_dum LeftUpLeg
      RightUpLeg_dum RightUpLeg
      Spine Spine_dum1 Spine_dum2 Spine_dum3
      Spine_dum1 Head
      Spine_dum2 LeftShoulder
      Spine_dum3 RightShoulder
      LeftShoulder LeftArm
      LeftArm LeftForeArm
      LeftForeArm LeftHand
      LeftHand LeftHand_dum1 LeftHand_dum2
      LeftHand_dum1 LeftHandThumb1
      RightShoulder RightArm
      RightArm RightForeArm
      RightForeArm RightHand
      RightHand RightHand_dum1 RightHand_dum2
      RightHand_dum1 RightHandThumb1
      LeftUpLeg LeftLeg
      LeftLeg LeftFoot
      LeftFoot LeftToeBase
      RightUpLeg RightLeg
      RightLeg RightFoot
      RightFoot RightToeBase
   end

# File created by Blade
# Date/Time:  Fri Jan 16 15:45:48 2015
# Frame Rate: 120.000 fps
#------------------------------------------------------
:FULLY-SPECIFIED
:DEGREES
1
root -5.587851 35.199041 -9.815063 0.927038 -4.818648 -5.325472
Spine -3.065419 -1.592435 10.128171
Head -2.960428 7.771075 -9.830259
LeftShoulder -24.041191 12.103746 3.263537
LeftArm 29.689228 -55.955958 -33.923720
LeftForeArm 22.539937 -0.000000 5.227521
LeftHand -7.335818 -0.000000 -3.156261
LeftHandThumb1 -26.253704 0.000000 33.147579
RightShoulder -7.174502 11.891825 -21.618857
RightArm 0.147427 24.045123 19.674952
RightForeArm -28.583385 -0.000000 16.589118
RightHand -5.227572 -0.000000 8.162638
RightHandThumb1 -24.326973 -0.000000 -32.862282
LeftUpLeg 9.677362 14.014988 6.564833
LeftLeg -10.001449 -0.000000 0.000000
LeftFoot -14.925007 26.793766 -9.578984
LeftToeBase 22.080309 -0.000000 -0.000000
RightUpLeg 6.759019 -5.721281 1.958858
RightLeg -5.394737 -0.000000 0.000000
RightFoot -4.907519 -24.596781 6.537606
RightToeBase 12.015394 -0.000000 -0.000000
2
root -5.590151 35.198574 -9.813944 0.929044 -4.798435 -5.320808
Spine -3.076021 -1.602588 10.109842
Head -2.951390 7.773486 -9.823378
LeftShoulder -24.012450 12.096738 3.290849
LeftArm 29.674152 -55.966488 -33.961701
LeftForeArm 22.577551 -0.000000 5.256622
LeftHand -7.330116 -0.000000 -3.217950
LeftHandThumb1 -26.253704 0.000000 33.147579
RightShoulder -7.188554 11.897324 -21.608513
RightArm 0.168311 24.074421 19.702087
RightForeArm -28.670141 0.000000 16.554158
RightHand -5.124295 -0.000000 8.062240
RightHandThumb1 -24.326973 -0.000000 -32.862282
LeftUpLeg 9.670561 14.014768 6.565413
LeftLeg -10.001419 -0.000000 0.000000
LeftFoot -14.941956 26.786707 -9.592226
LeftToeBase 22.140215 -0.000000 -0.000000
RightUpLeg 6.784386 -5.708855 1.958403
RightLeg -5.439527 -0.000000 0.000000
RightFoot -4.893294 -24.617937 6.535818
RightToeBase 11.976920 -0.000000 -0.000000
3
root -5.591409 35.198487 -9.812773 0.933397 -4.787562 -5.318511
Spine -3.093908 -1.608708 10.096125
Head -2.928356 7.773374 -9.820572
LeftShoulder -23.988298 12.108118 3.290313
LeftArm 29.681078 -56.008236 -34.000291
LeftForeArm 22.566602 -0.000000 5.285887
LeftHand -7.383042 -0.000000 -3.145814
LeftHandThumb1 -26.253704 0.000000 33.147579
RightShoulder -7.180168 11.899705 -21.584112
RightArm 0.169509 24.100629 19.695581
RightForeArm -28.701464 -0.000000 16.546162
RightHand -5.104426 -0.000000 8.068228
RightHandThumb1 -24.326973 -0.000000 -32.862282
LeftUpLeg 9.664842 14.017005 6.565298
LeftLeg -10.000476 -0.000000 0.000000
LeftFoot -14.946231 26.775808 -9.606960
LeftToeBase 22.128146 -0.000000 -0.000000
RightUpLeg 6.794335 -5.724290 1.957385
RightLeg -5.462004 -0.000000 0.000000
RightFoot -4.887102 -24.604203 6.546827
RightToeBase 12.000091 -0.000000 -0.000000
4
root -5.591427 35.198102 -9.810860 0.939513 -4.787240 -5.316437
Spine -3.108722 -1.600601 10.085211
Head -2.914704 7.766747 -9.817932
LeftShoulder -23.979141 12.115389 3.294103
LeftArm 29.687498 -56.002659 -34.044701
LeftForeArm 22.537607 -0.000000 5.303226
LeftHand -7.284285 -0.000000 -3.018718
LeftHandThumb1 -26.253704 0.000000 33.147579
RightShoulder -7.189627 11.926451 -21.585224
RightArm 0.151546 24.127956 19.705887
RightForeArm -28.675156 -0.000000 16.579629
RightHand -5.113543 -0.000000 8.201075
RightHandThumb1 -24.326973 -0.000000 -32.862282
LeftUpLeg 9.661874 14.043720 6.563615
LeftLeg -10.002649 -0.000000 0.000000
LeftFoot -14.952836 26.764610 -9.613519
LeftToeBase 22.144498 -0.000000 -0.000000
RightUpLeg 6.803696 -5.708402 1.956610
RightLeg -5.487886 -0.000000 0.000000
RightFoot -4.881621 -24.618762 6.562936
RightToeBase 11.996197 -0.000000 -0.000000
5
root -5.592963 35.198017 -9.810249 0.945401 -4.773631 -5.312287
Spine -3.122715 -1.603916 10.064033
Head -2.905939 7.738635 -9.819326
LeftShoulder -23.946353 12.108756 3.300267
LeftArm 29.623845 -55.980587 -34.017996
LeftForeArm 22.476715 0.000000 5.334646
LeftHand -7.291071 0.000000 -2.913988
LeftHandThumb1 -26.253704 0.000000 33.147579
RightShoulder -7.201331 11.963562 -21.570835
RightArm 0.142504 24.128708 19.707843
RightForeArm -28.699075 0.000000 16.582617
RightHand -5.130620 -0.000000 8.225124
RightHandThumb1 -24.326973 -0.000000 -32.862282
LeftUpLeg 9.645512 14.059456 6.563166
LeftLeg -9.989882 -0.000000 0.000000
LeftFoot -14.978177 26.732388 -9.662964
LeftToeBase 22.134756 -0.000000 -0.000000
RightUpLeg 6.811950 -5.704627 1.956578
RightLeg -5.512101 -0.000000 0.000000
RightFoot -4.872389 -24.640933 6.551415
RightToeBase 12.001442 -0.000000 -0.000000
6
root -5.595803 35.197706 -9.809124 0.949041 -4.752655 -5.310832
Spine -3.129390 -1.612904 10.043109
Head -2.917122 7.740881 -9.814951
LeftShoulder -23.940194 12.096422 3.313029
LeftArm 29.590015 -55.904611 -34.028417
LeftForeArm 22.350009 -0.000000 5.372724
LeftHand -7.186362 -0.000000 -2.626694
LeftHandThumb1 -26.253704 0.000000 33.147579
RightShoulder -7.227680 11.985937 -21.559829
RightArm 0.146385 24.118001 19.717377
RightForeArm -28.675299 -0.000000 16.577945
RightHand -5.093062 -0.000000 8.239557
RightHandThumb1 -24.326973 -0.000000 -32.862282
LeftUpLeg 9.633418 14.068680 6.567722
LeftLeg -9.976049 -0.000000 0.000000
LeftFoot -14.942760 26.714771 -9.597938
LeftToeBase 22.121921 -0.000000 -0.000000
RightUpLeg 6.828484 -5.700953 1.963259
RightLeg -5.545174 -0.000000 0.000000
RightFoot -4.861256 -24.673580 6.550670
RightToeBase 11.992335 -0.000000 -0.000000
7
root -5.597680 35.196926 -9.807918 0.951307 -4.723814 -5.303552
Spine -3.130905 -1.645196 9.998915
Head -2.937770 7.724966 -9.776515
LeftShoulder -23.967388 12.090315 3.351060
LeftArm 29.607147 -55.859752 -34.142594
LeftForeArm 22.283028 -0.000000 5.483705
LeftHand -7.166939 0.000000 -2.403539
LeftHandThumb1 -26.253704 0.000000 33.147579
RightShoulder -7.261604 12.074964 -21.609869
RightArm 0.125844 24.093893 19.862612
RightForeArm -28.620714 -0.000000 16.713774
RightHand -5.434967 -0.000000 8.373790
RightHandThumb1 -24.326973 -0.000000 -32.862282
LeftUpLeg 9.616758 14.079700 6.565507
LeftLeg -9.959748 -0.000000 0.000000
LeftFoot -14.954428 26.692643 -9.579613
LeftToeBase 22.163572 -0.000000 -0.000000
RightUpLeg 6.842948 -5.711775 1.959604
RightLeg -5.569539 -0.000000 0.000000
RightFoot -4.865309 -24.690554 6.548155
RightToeBase 12.012928 -0.000000 -0.000000
8
root -5.600540 35.196435 -9.807141 0.946931 -4.695086 -5.298947
Spine -3.124078 -1.664147 9.968901
Head -2.961840 7.709550 -9.777968
LeftShoulder -23.956342 12.082739 3.366124
LeftArm 29.571312 -55.814261 -34.200835
LeftForeArm 22.186965 -0.000000 5.568081
LeftHand -7.116273 -0.000000 -2.236923
LeftHandThumb1 -26.253704 0.000000 33.147579
RightShoulder -7.298559 12.152799 -21.619725
RightArm 0.100136 24.010243 19.880989
RightForeArm -28.474127 -0.000000 16.775268
RightHand -5.596276 -0.000000 8.446240
RightHandThumb1 -24.326973 -0.000000 -32.862282
LeftUpLeg 9.611959 14.072913 6.568992
LeftLeg -9.952956 -0.000000 0.000000
LeftFoot -14.949521 26.673080 -9.577838
LeftToeBase 22.162008 -0.000000 -0.000000
RightUpLeg 6.861591 -5.714428 1.959848
RightLeg -5.587171 -0.000000 0.000000
RightFoot -4.871283 -24.709785 6.553653
RightToeBase 11.981189 -0.000000 -0.000000
9
root -5.601254 35.196426 -9.805047 0.947502 -4.690688 -5.301093
Spine -3.128891 -1.662067 9.953555
Head -2.964928 7.699528 -9.779325
LeftShoulder -23.935517 12.112112 3.336586
LeftArm 29.496767 -55.755290 -34.189812
LeftForeArm 22.024566 -0.000000 5.633940
LeftHand -7.059841 -0.000000 -1.772743
LeftHandThumb1 -26.253704 0.000000 33.147579
RightShoulder -7.321574 12.170318 -21.610677
RightArm 0.112941 24.004710 19.883834
RightForeArm -28.433684 0.000000 16.730675
RightHand -5.504217 -0.000000 8.376348
RightHandThumb1 -24.326973 -0.000000 -32.862282
LeftUpLeg 9.609388 14.123362 6.576359
LeftLeg -9.946000 -0.000000 0.000000
LeftFoot -14.981686 26.630564 -9.612361
LeftToeBase 22.173303 -0.000000 -0.000000
RightUpLeg 6.870084 -5.712416 1.962399
RightLeg -5.597660 -0.000000 0.000000
RightFoot -4.862369 -24.714554 6.542211
RightToeBase 11.986558 -0.000000 -0.000000
10
root -5.604722 35.196158 -9.803286 0.938769 -4.655106 -5.298051
Spine -3.121133 -1.682804 9.920453
Head -2.986842 7.693809 -9.774489
LeftShoulder -23.917557 12.114317 3.336997
LeftArm 29.422056 -55.692314 -34.244850
LeftForeArm 21.932678 -0.000000 5.782872
LeftHand -6.839452 -0.000000 -1.312559
LeftHandThumb1 -26.253704 0.000000 33.147579
RightShoulder -7.372460 12.209037 -21.615384
RightArm 0.122245 23.973682 19.911109
RightForeArm -28.401313 -0.000000 16.717990
RightHand -5.527844 -0.000000 8.438639
RightHandThumb1 -24.326973 -0.000000 -32.862282
LeftUpLeg 9.607094 14.129813 6.582928
LeftLeg -9.938164 -0.000000 0.000000
LeftFoot -14.961196 26.602384 -9.593292
LeftToeBase 22.180769 -0.000000 -0.000000
RightUpLeg 6.896370 -5.714445 1.966364
RightLeg -5.620637 -0.000000 0.000000
RightFoot -4.864785 -24.747771 6.555875
RightToeBase 11.987978 -0.000000 -0.000000
